<svg width="196" height="71" fill="none" xmlns="http://www.w3.org/2000/svg">
    <g clip-path="url(#a)" fill="#fff">
        <path d="M196 .435h-27.674v23.318H196V.435ZM195.989 70.91h-27.641c0-11.083-10.899-20.068-24.341-20.068v.026h-16.999v19.98H98.725V.206h28.283v27.846h16.999c28.711 0 51.982 19.187 51.982 42.857ZM95.081.25v70.642H69.374V50.798h-17c-13.442 0-24.34 8.994-24.34 20.076H.403c0-12.438 6.421-23.635 16.69-31.466C6.823 31.575.402 20.378.402 7.94V.25h27.641v7.69c0 11.082 10.899 20.067 24.34 20.067v-.026h17V.25h25.708-.01Z"/>
    </g>
    <defs>
        <clipPath id="a">
            <path fill="#fff" d="M0 0h196v71H0z"/>
        </clipPath>
    </defs>
</svg>
